<mxfile host="app.diagrams.net" agent="Mozilla/5.0 (X11; Linux x86_64) AppleWebKit/537.36 (KHTML, like Gecko) Chrome/139.0.0.0 Safari/537.36" version="28.0.9">
  <diagram id="shieldcraft-high-level" name="ShieldCraft AI High-Level AWS Architecture">
    <mxGraphModel dx="1426" dy="755" grid="1" gridSize="10" guides="1" tooltips="1" connect="1" arrows="1" fold="1" page="1" pageScale="1" pageWidth="827" pageHeight="1169" background="none" math="0" shadow="0" adaptiveColors="auto">
      <root>
        <mxCell id="0" />
        <mxCell id="1" parent="0" />
        <mxCell id="pYrPTurNL3e_KmD-ya8p-501" value="VPC 10.0.0.0/16" style="shape=rectangle;fillColor=#f8fafc;strokeColor=#94a3b8;opacity=60;rounded=0;fontSize=14;fontStyle=1;" vertex="1" parent="1">
          <mxGeometry x="40" y="40" width="760" height="490" as="geometry" />
        </mxCell>
        <mxCell id="pYrPTurNL3e_KmD-ya8p-502" value="AZ1" style="shape=rectangle;fillColor=#ffffff;strokeColor=#cbd5e1;opacity=70;rounded=0;fontSize=12;fontStyle=1;" vertex="1" parent="1">
          <mxGeometry x="60" y="70" width="720" height="430" as="geometry" />
        </mxCell>
        <mxCell id="pYrPTurNL3e_KmD-ya8p-503" value="Public Subnet &#xa;10.0.1.0/24" style="shape=rectangle;rounded=1;whiteSpace=wrap;fillColor=#ffffff;strokeColor=#6366f1;strokeWidth=2;fontSize=12;" vertex="1" parent="1">
          <mxGeometry x="100" y="130" width="300" height="210" as="geometry" />
        </mxCell>
        <mxCell id="pYrPTurNL3e_KmD-ya8p-504" value="Private Subnet &#xa;10.0.11.0/24" style="shape=rectangle;rounded=1;whiteSpace=wrap;fillColor=#ffffff;strokeColor=#10b981;strokeWidth=2;fontSize=12;" vertex="1" parent="1">
          <mxGeometry x="440" y="130" width="300" height="210" as="geometry" />
        </mxCell>
        <mxCell id="pYrPTurNL3e_KmD-ya8p-505" value="Internet Gateway" style="rounded=1;whiteSpace=wrap;fillColor=#ffffff;strokeColor=#6366f1;fontSize=11;" vertex="1" parent="1">
          <mxGeometry x="100" y="50" width="150" height="40" as="geometry" />
        </mxCell>
        <mxCell id="pYrPTurNL3e_KmD-ya8p-506" value="NAT GW" style="rounded=1;whiteSpace=wrap;fillColor=#ffffff;strokeColor=#6366f1;fontSize=11;dashed=1;dashPattern=4 4;" vertex="1" parent="1">
          <mxGeometry x="360" y="70" width="110" height="40" as="geometry" />
        </mxCell>
        <mxCell id="pYrPTurNL3e_KmD-ya8p-507" value="RTB Public" style="rounded=1;whiteSpace=wrap;fillColor=#ffffff;strokeColor=#94a3b8;fontSize=10;dashed=1;dashPattern=4 4;" vertex="1" parent="1">
          <mxGeometry x="180" y="360" width="120" height="40" as="geometry" />
        </mxCell>
        <mxCell id="pYrPTurNL3e_KmD-ya8p-508" value="RTB Private" style="rounded=1;whiteSpace=wrap;fillColor=#ffffff;strokeColor=#94a3b8;fontSize=10;dashed=1;dashPattern=4 4;" vertex="1" parent="1">
          <mxGeometry x="510" y="360" width="120" height="40" as="geometry" />
        </mxCell>
        <mxCell id="pYrPTurNL3e_KmD-ya8p-509" value="NACL Public" style="rounded=1;whiteSpace=wrap;fillColor=#ffffff;strokeColor=#94a3b8;fontSize=9;" vertex="1" parent="1">
          <mxGeometry x="180" y="420" width="120" height="32" as="geometry" />
        </mxCell>
        <mxCell id="pYrPTurNL3e_KmD-ya8p-510" value="NACL Private" style="rounded=1;whiteSpace=wrap;fillColor=#ffffff;strokeColor=#94a3b8;fontSize=9;" vertex="1" parent="1">
          <mxGeometry x="510" y="420" width="120" height="32" as="geometry" />
        </mxCell>
        <mxCell id="pYrPTurNL3e_KmD-ya8p-511" value="Legend" style="shape=swimlane;startSize=24;rounded=1;fillColor=#ffffff;strokeColor=#9ca3af;fontSize=11;" vertex="1" parent="1">
          <mxGeometry x="827" y="40" width="200" height="180" as="geometry" />
        </mxCell>
        <mxCell id="pYrPTurNL3e_KmD-ya8p-512" value="Blue Border: Public Subnet" style="rounded=1;whiteSpace=wrap;fillColor=#ffffff;strokeColor=#6366f1;fontSize=10;" vertex="1" parent="pYrPTurNL3e_KmD-ya8p-511">
          <mxGeometry x="10" y="30" width="170" height="28" as="geometry" />
        </mxCell>
        <mxCell id="pYrPTurNL3e_KmD-ya8p-513" value="Green Border: Private Subnet" style="rounded=1;whiteSpace=wrap;fillColor=#ffffff;strokeColor=#10b981;fontSize=10;" vertex="1" parent="pYrPTurNL3e_KmD-ya8p-511">
          <mxGeometry x="10" y="62" width="170" height="28" as="geometry" />
        </mxCell>
        <mxCell id="pYrPTurNL3e_KmD-ya8p-514" value="Gray Dash: Infra Meta" style="rounded=1;whiteSpace=wrap;fillColor=#ffffff;strokeColor=#94a3b8;fontSize=10;dashed=1;dashPattern=4 4;" vertex="1" parent="pYrPTurNL3e_KmD-ya8p-511">
          <mxGeometry x="10" y="94" width="170" height="28" as="geometry" />
        </mxCell>
        <mxCell id="pYrPTurNL3e_KmD-ya8p-515" value="Orange Border: GW Endpoint" style="rounded=1;whiteSpace=wrap;fillColor=#ffffff;strokeColor=#f59e0b;fontSize=10;" vertex="1" parent="pYrPTurNL3e_KmD-ya8p-511">
          <mxGeometry x="10" y="126" width="170" height="28" as="geometry" />
        </mxCell>
        <mxCell id="pYrPTurNL3e_KmD-ya8p-516" style="endArrow=block;strokeColor=#6366f1;" edge="1" parent="1" source="pYrPTurNL3e_KmD-ya8p-505" target="pYrPTurNL3e_KmD-ya8p-503">
          <mxGeometry relative="1" as="geometry" />
        </mxCell>
        <mxCell id="pYrPTurNL3e_KmD-ya8p-517" style="endArrow=block;strokeColor=#6366f1;" edge="1" parent="1" source="pYrPTurNL3e_KmD-ya8p-506" target="pYrPTurNL3e_KmD-ya8p-504">
          <mxGeometry relative="1" as="geometry" />
        </mxCell>
        <mxCell id="pYrPTurNL3e_KmD-ya8p-518" style="endArrow=block;strokeColor=#6366f1;dashed=1;dashPattern=6 4;" edge="1" parent="1" source="pYrPTurNL3e_KmD-ya8p-503" target="pYrPTurNL3e_KmD-ya8p-506">
          <mxGeometry relative="1" as="geometry" />
        </mxCell>
        <mxCell id="pYrPTurNL3e_KmD-ya8p-519" value="GW Endpoint S3 / DynamoDB" style="rounded=1;whiteSpace=wrap;fillColor=#ffffff;strokeColor=#f59e0b;fontSize=11;fontStyle=1;" vertex="1" parent="1">
          <mxGeometry x="300" y="100" width="180" height="60" as="geometry" />
        </mxCell>
        <mxCell id="pYrPTurNL3e_KmD-ya8p-520" style="endArrow=block;strokeColor=#f59e0b;" edge="1" parent="1" source="pYrPTurNL3e_KmD-ya8p-504" target="pYrPTurNL3e_KmD-ya8p-519">
          <mxGeometry relative="1" as="geometry" />
        </mxCell>
        <mxCell id="pYrPTurNL3e_KmD-ya8p-521" value="No NAT data charges for S3/DDB" style="rounded=1;whiteSpace=wrap;fillColor=#ffffff;strokeColor=#94a3b8;fontSize=9;dashed=1;dashPattern=4 4;" vertex="1" parent="1">
          <mxGeometry x="500" y="100" width="180" height="50" as="geometry" />
        </mxCell>
      </root>
    </mxGraphModel>
  </diagram>
</mxfile>
